# xmcd
#
# Track frame offsets: 
#        150
#        41763
#        77336
#        110473
#        161567
#        204504
#        239232
#
# Disc length: 3985 seconds
#
# Revision: 0
# Processed by: cddbd v1.5.2PL0 Copyright (c) Steve Scherf et al.
# Submitted via: ExactAudioCopy v1.3
#
DISCID=570f8f07
DTITLE=章海玥 - 壹章 章海玥 二胡演奏作品專輯
DYEAR=2017
DGENRE=Classical
TTITLE0=如來藏
TTITLE1=陝北抒懷
TTITLE2=敍事曲
TTITLE3=楚頌
TTITLE4=關東詩篇
TTITLE5=病中吟
TTITLE6=弦歌吟
EXTD=
EXTT0=
EXTT1=
EXTT2=
EXTT3=
EXTT4=
EXTT5=
EXTT6=
PLAYORDER=
